Coordinates
version=1
nRows=49
nColumns=12
inDegrees=yes

Units are S.I. units (second, meters, Newtons, ...)
Angles are in degrees

endheader
time	SC_y	SC_z	SC_x	AC_y	AC_z	AC_x	GH_y	GH_z	GH_yy	EL_x	PS_y
       0.0              -43.49          5.123          56.45          42.07         -17.82         -11.23          75.37        -0.9401         -143.8          57.61          107.8
    0.0142              -43.49          5.124          56.45          42.07         -17.82         -11.24          75.37        -0.9313         -143.7          57.62          107.8
    0.0284              -43.48          5.124          56.45          42.07         -17.82         -11.24          75.38         -0.922         -143.7          57.63          107.8
    0.0426              -43.48          5.125          56.45          42.07         -17.82         -11.24          75.38        -0.9121         -143.7          57.64          107.8
    0.0568              -43.48          5.126          56.45          42.07         -17.82         -11.24          75.39        -0.9016         -143.7          57.64          107.8
     0.071              -43.47          5.127          56.45          42.07         -17.82         -11.24          75.39        -0.8904         -143.6          57.65          107.8
    0.0852              -43.47          5.128          56.45          42.07         -17.82         -11.24           75.4        -0.8784         -143.6          57.66          107.8
    0.0994              -43.47          5.129          56.45          42.07         -17.82         -11.24          75.41        -0.8655         -143.6          57.67          107.8
    0.1136              -43.46          5.131          56.45          42.07         -17.82         -11.24          75.41        -0.8518         -143.5          57.68          107.7
    0.1278              -43.46          5.132          56.45          42.07         -17.82         -11.24          75.42         -0.837         -143.5          57.69          107.7
     0.142              -43.46          5.133          56.45          42.07         -17.82         -11.25          75.43        -0.8212         -143.5          57.71          107.7
    0.1562              -43.45          5.135          56.45          42.07         -17.82         -11.25          75.44        -0.8042         -143.4          57.72          107.7
    0.1704              -43.45          5.137          56.45          42.07         -17.82         -11.25          75.45        -0.7858         -143.4          57.74          107.7
    0.1846              -43.44          5.138          56.45          42.07         -17.82         -11.25          75.46         -0.766         -143.3          57.75          107.7
    0.1988              -43.44           5.14          56.45          42.07         -17.82         -11.25          75.47        -0.7445         -143.3          57.77          107.6
     0.213              -43.43          5.142          56.45          42.07         -17.82         -11.25          75.49        -0.7212         -143.2          57.79          107.6
    0.2272              -43.42          5.145          56.45          42.07         -17.82         -11.26           75.5        -0.6959         -143.1          57.81          107.6
    0.2414              -43.42          5.147          56.45          42.07         -17.82         -11.26          75.52        -0.6684         -143.1          57.83          107.5
    0.2556              -43.41           5.15          56.45          42.07         -17.82         -11.26          75.53        -0.6383         -143.0          57.85          107.5
    0.2698               -43.4          5.153          56.45          42.07         -17.82         -11.27          75.55        -0.6053         -142.9          57.88          107.5
     0.284              -43.39          5.156          56.45          42.07         -17.82         -11.27          75.57        -0.5691         -142.8          57.91          107.4
    0.2982              -43.38          5.159          56.45          42.07         -17.81         -11.27          75.59        -0.5293         -142.7          57.94          107.4
    0.3124              -43.37          5.163          56.45          42.07         -17.81         -11.28          75.62        -0.4853         -142.6          57.97          107.4
    0.3266              -43.36          5.168          56.45          42.07         -17.81         -11.28          75.65        -0.4366         -142.5          58.01          107.3
    0.3408              -43.34          5.172          56.45          42.07         -17.81         -11.29          75.68        -0.3824         -142.4          58.05          107.2
     0.355              -43.33          5.178          56.45          42.07         -17.81         -11.29          75.71        -0.3219         -142.2           58.1          107.2
    0.3692              -43.31          5.184          56.45          42.07         -17.81          -11.3          75.75        -0.2542         -142.1          58.15          107.1
    0.3834              -43.29          5.191          56.45          42.07         -17.81         -11.31          75.79         -0.178         -141.9          58.21          107.0
    0.3976              -43.27          5.198          56.45          42.07          -17.8         -11.31          75.84       -0.09191         -141.7          58.28          106.9
    0.4118              -43.24          5.207          56.45          42.07          -17.8         -11.32          75.89        0.00584         -141.4          58.36          106.8
     0.426              -43.21          5.217          56.45          42.06          -17.8         -11.33          75.96         0.1174         -141.1          58.45          106.7
    0.4402              -43.18          5.228          56.45          42.06          -17.8         -11.35          76.03         0.2454         -140.8          58.55          106.6
    0.4544              -43.14          5.242          56.45          42.06         -17.79         -11.36          76.11         0.3933         -140.5          58.67          106.4
    0.4686              -43.09          5.257          56.45          42.06         -17.79         -11.38          76.21          0.565         -140.0           58.8          106.2
    0.4828              -43.04          5.275          56.45          42.06         -17.78          -11.4          76.32          0.766         -139.5          58.96          106.0
     0.497              -42.98          5.296          56.45          42.06         -17.78         -11.42          76.45          1.003         -138.9          59.15          105.8
    0.5112              -42.91          5.321          56.45          42.06         -17.77         -11.45          76.61          1.284         -138.2          59.37          105.5
    0.5254              -42.82          5.351          56.45          42.05         -17.76         -11.48           76.8          1.622         -137.4          59.63          105.1
    0.5396              -42.71          5.387          56.45          42.05         -17.75         -11.52          77.02           2.03         -136.4          59.96          104.7
    0.5538              -42.58          5.432          56.45          42.05         -17.74         -11.56           77.3          2.529         -135.2          60.35          104.2
     0.568              -42.42          5.487          56.46          42.04         -17.73         -11.62          77.65          3.145         -133.6          60.84          103.5
    0.5822              -42.22          5.555          56.46          42.04         -17.71         -11.69          78.08          3.912         -131.7          61.44          102.7
    0.5964              -41.97          5.641          56.46          42.03         -17.68         -11.79          78.62          4.879         -129.4           62.2          101.7
    0.6106              -41.64          5.751          56.46          42.02         -17.65          -11.9           79.3          6.108         -126.3          63.17          100.4
    0.6248              -41.23          5.891          56.46          42.01         -17.61         -12.05          80.18          7.682         -122.4          64.41          98.68
     0.639              -40.71          6.071          56.46           42.0         -17.57         -12.24          81.31          9.701         -117.4          66.01          96.54
    0.6532              -40.03          6.301          56.46          41.98          -17.5         -12.49          82.75          12.28         -111.0          68.04           93.8
    0.6674              -39.18          6.589          56.46          41.96         -17.42          -12.8          84.56          15.52         -103.0           70.6          90.36
    0.6816              -38.15          6.942          56.47          41.93         -17.33         -13.17          86.77          19.47         -93.25          73.72          86.16
